<?xml version="1.0" encoding="UTF-8" standalone="no"?>
<svg
   version="1.1"
   width="180.34375"
   height="200.625"
   id="svg3750"
   sodipodi:docname="ebi.svg"
   inkscape:version="1.2.1 (9c6d41e, 2022-07-14)"
   xmlns:inkscape="http://www.inkscape.org/namespaces/inkscape"
   xmlns:sodipodi="http://sodipodi.sourceforge.net/DTD/sodipodi-0.dtd"
   xmlns="http://www.w3.org/2000/svg"
   xmlns:svg="http://www.w3.org/2000/svg">
  <sodipodi:namedview
     id="namedview140374"
     pagecolor="#ffffff"
     bordercolor="#000000"
     borderopacity="0.25"
     inkscape:showpageshadow="2"
     inkscape:pageopacity="0.0"
     inkscape:pagecheckerboard="0"
     inkscape:deskcolor="#d1d1d1"
     showgrid="false"
     inkscape:zoom="1.176324"
     inkscape:cx="-132.19147"
     inkscape:cy="100.3125"
     inkscape:window-width="1344"
     inkscape:window-height="456"
     inkscape:window-x="0"
     inkscape:window-y="420"
     inkscape:window-maximized="0"
     inkscape:current-layer="svg3750" />
  <defs
     id="defs3752" />
  <path
     d="M 90.15625,0 C 89.56629,0 88.99385,0.0424 88.4375,0.15625 88.15932,0.21315 87.89262,0.29173 87.625,0.375 87.35738,0.4583 87.09939,0.5481 86.84375,0.65625 86.07683,0.9807 85.352,1.41486 84.71875,1.9375 84.29658,2.28592 83.91092,2.67158 83.5625,3.09375 c -0.34842,0.42216 -0.64304,0.89056 -0.90625,1.375 -0.1316,0.24222 -0.26685,0.49436 -0.375,0.75 C 82.1731,5.47439 82.08326,5.73237 82,6 c -0.24979,0.80287 -0.375,1.64631 -0.375,2.53125 0,1.77134 0.51576,3.41646 1.4375,4.78125 0.6145,0.90985 1.40303,1.69786 2.3125,2.3125 0.22737,0.15365 0.47653,0.30587 0.71875,0.4375 0.24222,0.13162 0.49436,0.23558 0.75,0.34375 0.25564,0.10816 0.51363,0.22922 0.78125,0.3125 0.80287,0.24981 1.64632,0.375 2.53125,0.375 4.72359,0 8.5625,-3.83892 8.5625,-8.5625 C 98.71875,3.81161 94.87984,0 90.15625,0 Z M 69.75,11.46875 c -4.71965,0 -8.53125,3.81161 -8.53125,8.53125 0,4.72358 3.8116,8.5625 8.53125,8.5625 4.72359,0 8.5625,-3.83892 8.5625,-8.5625 0,-4.71964 -3.83891,-8.53125 -8.5625,-8.53125 z m 40.8125,0 c -4.72359,0 -8.53125,3.81161 -8.53125,8.53125 0,4.72358 3.80766,8.5625 8.53125,8.5625 4.71965,0 8.5625,-3.83892 8.5625,-8.5625 0,-4.71964 -3.84285,-8.53125 -8.5625,-8.53125 z M 49.34375,22.9375 c -4.71965,0 -8.53125,3.80766 -8.53125,8.53125 0,4.72358 3.8116,8.5625 8.53125,8.5625 4.72359,0 8.5625,-3.83892 8.5625,-8.5625 0,-4.72359 -3.83891,-8.53125 -8.5625,-8.53125 z m 40.8125,0 c -4.71965,0 -8.53125,3.80766 -8.53125,8.53125 0,4.72358 3.8116,8.5625 8.53125,8.5625 4.72359,0 8.5625,-3.83892 8.5625,-8.5625 0,-4.72359 -3.83891,-8.53125 -8.5625,-8.53125 z m 40.8125,0 c -4.71965,0 -8.53125,3.80766 -8.53125,8.53125 0,4.72358 3.8116,8.5625 8.53125,8.5625 4.71964,0 8.5625,-3.83892 8.5625,-8.5625 0,-4.72359 -3.84286,-8.53125 -8.5625,-8.53125 z M 28.9375,34.40625 c -4.71965,0 -8.53125,3.83891 -8.53125,8.5625 0,4.71963 3.8116,8.53125 8.53125,8.53125 4.72359,0 8.5625,-3.81162 8.5625,-8.53125 0,-4.72359 -3.83891,-8.5625 -8.5625,-8.5625 z m 40.8125,0 c -4.71965,0 -8.53125,3.83891 -8.53125,8.5625 0,4.71963 3.8116,8.53125 8.53125,8.53125 4.72359,0 8.5625,-3.81162 8.5625,-8.53125 0,-4.72359 -3.83891,-8.5625 -8.5625,-8.5625 z m 40.8125,0 c -4.72359,0 -8.53125,3.83891 -8.53125,8.5625 0,4.71963 3.80766,8.53125 8.53125,8.53125 4.71965,0 8.5625,-3.81162 8.5625,-8.53125 0,-4.72359 -3.84285,-8.5625 -8.5625,-8.5625 z m 40.8125,0 c -4.71965,0 -8.53125,3.83891 -8.53125,8.5625 0,4.71963 3.8116,8.53125 8.53125,8.53125 4.72359,0 8.5625,-3.81162 8.5625,-8.53125 0,-4.72359 -3.83891,-8.5625 -8.5625,-8.5625 z M 8.53125,45.875 C 3.8116,45.875 0,49.71786 0,54.4375 c 0,4.72358 3.8116,8.53125 8.53125,8.53125 4.72359,0 8.5625,-3.80767 8.5625,-8.53125 0,-4.71964 -3.83891,-8.5625 -8.5625,-8.5625 z m 40.8125,0 c -4.71965,0 -8.53125,3.84286 -8.53125,8.5625 0,4.72358 3.8116,8.53125 8.53125,8.53125 4.72359,0 8.5625,-3.80767 8.5625,-8.53125 0,-4.71964 -3.83891,-8.5625 -8.5625,-8.5625 z m 40.8125,0 c -4.71965,0 -8.53125,3.84286 -8.53125,8.5625 0,4.72358 3.8116,8.53125 8.53125,8.53125 4.72359,0 8.5625,-3.80767 8.5625,-8.53125 0,-4.71964 -3.83891,-8.5625 -8.5625,-8.5625 z m 40.8125,0 c -4.71965,0 -8.53125,3.84286 -8.53125,8.5625 0,4.72358 3.8116,8.53125 8.53125,8.53125 4.71964,0 8.5625,-3.80767 8.5625,-8.53125 0,-4.71964 -3.84286,-8.5625 -8.5625,-8.5625 z m 40.8125,0 c -4.71965,0 -8.53125,3.84286 -8.53125,8.5625 0,4.72358 3.8116,8.53125 8.53125,8.53125 4.72359,0 8.5625,-3.80767 8.5625,-8.53125 0,-4.71964 -3.83891,-8.5625 -8.5625,-8.5625 z M 28.9375,57.34375 c -4.71965,0 -8.53125,3.83891 -8.53125,8.5625 0,4.72358 3.8116,8.53125 8.53125,8.53125 4.72359,0 8.5625,-3.80767 8.5625,-8.53125 0,-4.72359 -3.83891,-8.5625 -8.5625,-8.5625 z m 40.8125,0 c -4.71965,0 -8.53125,3.83891 -8.53125,8.5625 0,4.72358 3.8116,8.53125 8.53125,8.53125 4.72359,0 8.5625,-3.80767 8.5625,-8.53125 0,-4.72359 -3.83891,-8.5625 -8.5625,-8.5625 z m 40.8125,0 c -4.72359,0 -8.53125,3.83891 -8.53125,8.5625 0,4.72358 3.80766,8.53125 8.53125,8.53125 4.71965,0 8.5625,-3.80767 8.5625,-8.53125 0,-4.72359 -3.84285,-8.5625 -8.5625,-8.5625 z m 40.8125,0 c -4.71965,0 -8.53125,3.83891 -8.53125,8.5625 0,4.72358 3.8116,8.53125 8.53125,8.53125 4.72359,0 8.5625,-3.80767 8.5625,-8.53125 0,-4.72359 -3.83891,-8.5625 -8.5625,-8.5625 z M 8.53125,68.8125 C 3.8116,68.8125 0,72.65536 0,77.375 c 0,4.72358 3.8116,8.53125 8.53125,8.53125 4.72359,0 8.5625,-3.80767 8.5625,-8.53125 0,-4.71964 -3.83891,-8.5625 -8.5625,-8.5625 z m 40.8125,0 c -4.71965,0 -8.53125,3.83891 -8.53125,8.5625 0,4.72358 3.8116,8.53125 8.53125,8.53125 4.72359,0 8.5625,-3.80767 8.5625,-8.53125 0,-4.72359 -3.83891,-8.5625 -8.5625,-8.5625 z m 40.8125,0 c -4.71965,0 -8.53125,3.83891 -8.53125,8.5625 0,4.72358 3.8116,8.53125 8.53125,8.53125 4.72359,0 8.5625,-3.80767 8.5625,-8.53125 0,-4.72359 -3.83891,-8.5625 -8.5625,-8.5625 z m 40.8125,0 c -4.71965,0 -8.53125,3.83891 -8.53125,8.5625 0,4.72358 3.8116,8.53125 8.53125,8.53125 4.71964,0 8.5625,-3.80767 8.5625,-8.53125 0,-4.72359 -3.84286,-8.5625 -8.5625,-8.5625 z m 40.8125,0 c -4.71965,0 -8.53125,3.84286 -8.53125,8.5625 0,4.72358 3.8116,8.53125 8.53125,8.53125 4.72359,0 8.5625,-3.80767 8.5625,-8.53125 0,-4.71964 -3.83891,-8.5625 -8.5625,-8.5625 z M 28.9375,80.28125 c -4.71965,0 -8.53125,3.83891 -8.53125,8.5625 0,4.71964 3.8116,8.53125 8.53125,8.53125 4.72359,0 8.5625,-3.81161 8.5625,-8.53125 0,-4.72359 -3.83891,-8.5625 -8.5625,-8.5625 z m 40.8125,0 c -4.71965,0 -8.53125,3.83891 -8.53125,8.5625 0,4.71964 3.8116,8.53125 8.53125,8.53125 4.72359,0 8.5625,-3.81161 8.5625,-8.53125 0,-4.72359 -3.83891,-8.5625 -8.5625,-8.5625 z m 40.8125,0 c -4.72359,0 -8.53125,3.83891 -8.53125,8.5625 0,4.71964 3.80766,8.53125 8.53125,8.53125 4.71965,0 8.5625,-3.81161 8.5625,-8.53125 0,-4.72359 -3.84285,-8.5625 -8.5625,-8.5625 z m 40.8125,0 c -4.71965,0 -8.53125,3.83891 -8.53125,8.5625 0,4.71964 3.8116,8.53125 8.53125,8.53125 4.72359,0 8.5625,-3.81161 8.5625,-8.53125 0,-4.72359 -3.83891,-8.5625 -8.5625,-8.5625 z M 8.53125,91.75 C 3.8116,91.75 0,95.58891 0,100.3125 c 0,4.72359 3.8116,8.5625 8.53125,8.5625 4.72359,0 8.5625,-3.83891 8.5625,-8.5625 0,-4.72359 -3.83891,-8.5625 -8.5625,-8.5625 z m 40.8125,0 c -4.71965,0 -8.53125,3.83891 -8.53125,8.5625 0,4.72359 3.8116,8.5625 8.53125,8.5625 4.72359,0 8.5625,-3.83891 8.5625,-8.5625 0,-4.72359 -3.83891,-8.5625 -8.5625,-8.5625 z m 40.8125,0 c -4.71965,0 -8.53125,3.83891 -8.53125,8.5625 0,4.72359 3.8116,8.5625 8.53125,8.5625 4.72359,0 8.5625,-3.83891 8.5625,-8.5625 0,-4.72359 -3.83891,-8.5625 -8.5625,-8.5625 z m 40.8125,0 c -4.71965,0 -8.53125,3.83891 -8.53125,8.5625 0,4.72359 3.8116,8.5625 8.53125,8.5625 4.71964,0 8.5625,-3.83891 8.5625,-8.5625 0,-4.72359 -3.84286,-8.5625 -8.5625,-8.5625 z m 40.8125,0 c -4.71965,0 -8.53125,3.83891 -8.53125,8.5625 0,4.72359 3.8116,8.5625 8.53125,8.5625 4.72359,0 8.5625,-3.83891 8.5625,-8.5625 0,-4.72359 -3.83891,-8.5625 -8.5625,-8.5625 z M 28.9375,103.21875 c -4.71965,0 -8.53125,3.83891 -8.53125,8.5625 0,4.72359 3.8116,8.5625 8.53125,8.5625 4.72359,0 8.5625,-3.83891 8.5625,-8.5625 0,-4.72359 -3.83891,-8.5625 -8.5625,-8.5625 z m 40.8125,0 c -4.71965,0 -8.53125,3.83891 -8.53125,8.5625 0,4.72359 3.8116,8.5625 8.53125,8.5625 4.72359,0 8.5625,-3.83891 8.5625,-8.5625 0,-4.72359 -3.83891,-8.5625 -8.5625,-8.5625 z m 40.8125,0 c -4.72359,0 -8.53125,3.83891 -8.53125,8.5625 0,4.72359 3.80766,8.5625 8.53125,8.5625 4.71965,0 8.5625,-3.83891 8.5625,-8.5625 0,-4.72359 -3.84285,-8.5625 -8.5625,-8.5625 z m 40.8125,0 c -4.71965,0 -8.53125,3.83891 -8.53125,8.5625 0,4.72359 3.8116,8.5625 8.53125,8.5625 4.72359,0 8.5625,-3.83891 8.5625,-8.5625 0,-4.72359 -3.83891,-8.5625 -8.5625,-8.5625 z m -142.84375,11.5 C 3.8116,114.71875 0,118.52641 0,123.25 c 0,4.71964 3.8116,8.5625 8.53125,8.5625 4.72359,0 8.5625,-3.84286 8.5625,-8.5625 0,-4.72359 -3.83891,-8.53125 -8.5625,-8.53125 z m 81.625,0 c -4.71965,0 -8.53125,3.80766 -8.53125,8.53125 0,4.71964 3.8116,8.5625 8.53125,8.5625 4.72359,0 8.5625,-3.84286 8.5625,-8.5625 0,-4.72359 -3.83891,-8.53125 -8.5625,-8.53125 z m 40.8125,0 c -4.71965,0 -8.53125,3.80766 -8.53125,8.53125 0,4.71964 3.8116,8.5625 8.53125,8.5625 4.71964,0 8.5625,-3.84286 8.5625,-8.5625 0,-4.72359 -3.84286,-8.53125 -8.5625,-8.53125 z m 40.8125,0 c -4.71965,0 -8.53125,3.80766 -8.53125,8.53125 0,4.71964 3.8116,8.5625 8.53125,8.5625 4.72359,0 8.5625,-3.84286 8.5625,-8.5625 0,-4.72359 -3.83891,-8.53125 -8.5625,-8.53125 z M 28.9375,126.1875 c -4.71965,0 -8.53125,3.81161 -8.53125,8.53125 0,4.71964 3.8116,8.5625 8.53125,8.5625 4.72359,0 8.5625,-3.84286 8.5625,-8.5625 0,-4.71964 -3.83891,-8.53125 -8.5625,-8.53125 z m 40.8125,0 c -4.71965,0 -8.53125,3.81161 -8.53125,8.53125 0,4.71964 3.8116,8.5625 8.53125,8.5625 4.72359,0 8.5625,-3.84286 8.5625,-8.5625 0,-4.71964 -3.83891,-8.53125 -8.5625,-8.53125 z m 40.8125,0 c -4.72359,0 -8.53125,3.81161 -8.53125,8.53125 0,4.71964 3.80766,8.5625 8.53125,8.5625 4.71965,0 8.5625,-3.84286 8.5625,-8.5625 0,-4.71964 -3.84285,-8.53125 -8.5625,-8.53125 z m 40.8125,0 c -4.71965,0 -8.53125,3.81161 -8.53125,8.53125 0,4.71964 3.8116,8.5625 8.53125,8.5625 4.72359,0 8.5625,-3.84286 8.5625,-8.5625 0,-4.71964 -3.83891,-8.53125 -8.5625,-8.53125 z M 8.53125,137.65625 C 3.8116,137.65625 0,141.46786 0,146.1875 c 0,4.72359 3.8116,8.5625 8.53125,8.5625 4.72359,0 8.5625,-3.83891 8.5625,-8.5625 0,-4.71964 -3.83891,-8.53125 -8.5625,-8.53125 z m 40.8125,0 c -4.71965,0 -8.53125,3.81161 -8.53125,8.53125 0,4.72359 3.8116,8.5625 8.53125,8.5625 4.72359,0 8.5625,-3.83891 8.5625,-8.5625 0,-4.71964 -3.83891,-8.53125 -8.5625,-8.53125 z m 40.8125,0 c -4.71965,0 -8.53125,3.81161 -8.53125,8.53125 0,4.72359 3.8116,8.5625 8.53125,8.5625 4.72359,0 8.5625,-3.83891 8.5625,-8.5625 0,-4.71964 -3.83891,-8.53125 -8.5625,-8.53125 z m 40.8125,0 c -4.71965,0 -8.53125,3.81161 -8.53125,8.53125 0,4.72359 3.8116,8.5625 8.53125,8.5625 4.71964,0 8.5625,-3.83891 8.5625,-8.5625 0,-4.71964 -3.84286,-8.53125 -8.5625,-8.53125 z m 40.8125,0 c -4.71965,0 -8.53125,3.81161 -8.53125,8.53125 0,4.72359 3.8116,8.5625 8.53125,8.5625 4.72359,0 8.5625,-3.83891 8.5625,-8.5625 0,-4.71964 -3.83891,-8.53125 -8.5625,-8.53125 z M 28.9375,149.125 c -4.71965,0 -8.53125,3.81161 -8.53125,8.53125 0,4.72359 3.8116,8.5625 8.53125,8.5625 4.72359,0 8.5625,-3.83891 8.5625,-8.5625 0,-4.71964 -3.83891,-8.53125 -8.5625,-8.53125 z m 40.8125,0 c -4.71965,0 -8.53125,3.81161 -8.53125,8.53125 0,4.72359 3.8116,8.5625 8.53125,8.5625 4.72359,0 8.5625,-3.83891 8.5625,-8.5625 0,-4.71964 -3.83891,-8.53125 -8.5625,-8.53125 z m 40.8125,0 c -4.72359,0 -8.53125,3.81161 -8.53125,8.53125 0,4.72359 3.80766,8.5625 8.53125,8.5625 4.71965,0 8.5625,-3.83891 8.5625,-8.5625 0,-4.71964 -3.84285,-8.53125 -8.5625,-8.53125 z m 40.8125,0 c -4.71965,0 -8.53125,3.81161 -8.53125,8.53125 0,4.72359 3.8116,8.5625 8.53125,8.5625 4.72359,0 8.5625,-3.83891 8.5625,-8.5625 0,-4.71964 -3.83891,-8.53125 -8.5625,-8.53125 z M 49.34375,160.59375 c -4.71965,0 -8.53125,3.84286 -8.53125,8.5625 0,4.72359 3.8116,8.53125 8.53125,8.53125 4.72359,0 8.5625,-3.80766 8.5625,-8.53125 0,-4.71964 -3.83891,-8.5625 -8.5625,-8.5625 z m 40.8125,0 c -4.71965,0 -8.53125,3.84286 -8.53125,8.5625 0,4.72359 3.8116,8.53125 8.53125,8.53125 4.72359,0 8.5625,-3.80766 8.5625,-8.53125 0,-4.71964 -3.83891,-8.5625 -8.5625,-8.5625 z m 40.8125,0 c -4.71965,0 -8.53125,3.84286 -8.53125,8.5625 0,4.72359 3.8116,8.53125 8.53125,8.53125 4.71964,0 8.5625,-3.80766 8.5625,-8.53125 0,-4.71964 -3.84286,-8.5625 -8.5625,-8.5625 z M 69.75,172.0625 c -4.71965,0 -8.53125,3.83891 -8.53125,8.5625 0,4.71964 3.8116,8.53125 8.53125,8.53125 4.72359,0 8.5625,-3.81161 8.5625,-8.53125 0,-4.72359 -3.83891,-8.5625 -8.5625,-8.5625 z m 40.8125,0 c -4.72359,0 -8.53125,3.83891 -8.53125,8.5625 0,4.71964 3.80766,8.53125 8.53125,8.53125 4.71965,0 8.5625,-3.81161 8.5625,-8.53125 0,-4.72359 -3.84285,-8.5625 -8.5625,-8.5625 z m -20.40625,11.46875 c -1.47489,0 -2.8514,0.37311 -4.0625,1.03125 -0.48444,0.26326 -0.95283,0.58898 -1.375,0.9375 -0.21108,0.17426 -0.40039,0.33783 -0.59375,0.53125 -0.19336,0.19342 -0.38829,0.41384 -0.5625,0.625 -0.34842,0.42232 -0.64304,0.85908 -0.90625,1.34375 -0.1316,0.24234 -0.26685,0.49422 -0.375,0.75 -0.10815,0.25578 -0.19799,0.51346 -0.28125,0.78125 -0.0833,0.26779 -0.16181,0.56539 -0.21875,0.84375 -0.0569,0.27836 -0.0958,0.55624 -0.125,0.84375 -0.0292,0.28751 -0.0312,0.57978 -0.0312,0.875 0,0.29498 0.002,0.58771 0.0312,0.875 0.0876,0.86188 0.30055,1.67058 0.625,2.4375 0.2163,0.51128 0.474,1.01401 0.78125,1.46875 0.30725,0.45474 0.67577,0.86327 1.0625,1.25 0.19336,0.19336 0.38267,0.38829 0.59375,0.5625 0.21108,0.17421 0.42888,0.34638 0.65625,0.5 1.36421,0.92174 3.01138,1.4375 4.78125,1.4375 4.72359,0 8.5625,-3.81161 8.5625,-8.53125 0,-4.72359 -3.83891,-8.5625 -8.5625,-8.5625 z"
     id="path2524"
     style="fill:#5db446;fill-opacity:1;fill-rule:nonzero;stroke:none" />
  <path
     d="m 40.80052,123.25626 c 0,-4.72359 3.82781,-8.55139 8.54746,-8.55139 4.72358,0 8.54743,3.8278 8.54743,8.55139 0,4.71964 -3.82385,8.54745 -8.54743,8.54745 -4.71965,0 -8.54746,-3.82781 -8.54746,-8.54745"
     id="path2708"
     style="fill:#e3182c;fill-opacity:1;fill-rule:nonzero;stroke:none" />
</svg>
